<svg width="1280" height="38" viewBox="0 0 1280 38" fill="none" xmlns="http://www.w3.org/2000/svg">
<path d="M0 38V10.9446C1.13049 11.2928 2.23108 11.6908 3.33154 12.0988C5.03235 13.1434 6.72314 13.4917 8.45398 13.9593C10.1848 14.7652 11.9856 15.392 13.8064 15.392C15.6172 16.6556 17.4481 16.4367 19.2489 15.6507C22.3904 15.2428 25.5717 15.6208 28.7731 14.9244C31.9745 15.1831 35.186 14.1782 38.3975 14.3672C41.5989 14.3473 44.7904 12.5365 47.9418 13.2628C51.0632 11.9296 54.1746 12.3972 57.296 12.1883C60.4175 11.9794 63.5388 11.8898 66.6703 11.86C69.8018 12.1385 72.9432 13.2429 76.1046 11.8898C78.9459 12.9445 81.8071 10.3576 84.6785 11.0541C87.5398 10.9645 90.4111 9.77058 93.2625 9.24326C96.1138 9.4323 98.965 6.62657 101.776 7.62151C104.217 6.38778 106.769 6.33804 109.29 6.94495C111.821 7.36283 114.322 6.59672 116.683 5.57193C118.334 3.68153 119.974 3.81088 121.635 4.76603C123.306 4.71628 124.987 4.80582 126.728 4.80582C129.819 6.18879 132.95 5.13416 136.072 4.66653C139.203 4.00987 142.325 5.9699 145.406 4.93516C147.527 5.45253 149.618 5.70127 151.699 6.03955C153.742 5.884 155.776 6.50743 157.837 7.13939L157.982 7.18373C159.362 6.52707 160.733 7.94984 162.114 7.60161C163.484 8.32792 164.865 8.7259 166.255 8.04934C167.716 7.81055 169.207 7.37278 170.707 8.65625L170.76 8.67131C172.234 9.09441 173.726 9.52293 175.189 8.77564C176.87 8.79554 178.471 9.64124 180.072 8.27817C181.672 7.00465 183.283 7.29318 184.994 8.00954C187.035 7.97969 189.046 7.66131 191.047 7.27328L191.124 7.26752C193.099 7.12034 195.064 6.97385 197.039 6.13904C198.78 5.77091 201.862 4.49739 203.682 5.53214C204.073 6.22859 204.723 6.39773 204.883 6.19875C206.354 5.87041 207.354 7.01459 208.715 7.14394C209.805 6.55692 210.235 7.38272 211.536 8.77564C212.626 9.68104 213.967 8.92488 215.308 8.93483C216.648 9.5517 217.989 9.57159 219.089 8.73584C221.581 8.73584 224.012 9.69099 226.423 8.7259C228.834 9.19352 231.215 9.09402 233.626 8.04934C236.417 6.37783 239.219 7.81055 242.02 6.75591C244.821 6.92505 247.632 7.00464 250.454 5.76097C254.065 4.28845 257.777 4.02977 261.509 5.25354C265.24 4.2785 269.012 6.0097 272.734 5.83061C276.455 6.55692 280.137 6.20869 283.719 6.96485C286.12 6.0893 288.511 6.44748 290.922 7.77076C293.323 8.10904 295.734 8.90499 298.155 7.96974C300.366 8.21848 301.417 6.935 303.628 6.37783C306.689 4.61679 309.73 6.9151 312.792 6.935C315.843 6.40768 318.895 8.5866 321.986 7.18373C323.167 5.76097 323.977 5.55203 325.127 6.33804C326.368 5.94006 327.769 6.8355 329.179 6.17884C330.59 6.26838 332.01 5.79082 333.301 6.40768C336.292 5.38289 339.464 5.54208 342.635 5.0844C345.807 4.51729 348.988 3.96012 351.97 4.95507C353.31 5.19385 354.571 6.69621 355.821 6.51712C357.082 5.79082 358.332 8.94478 359.653 7.98964C360.974 9.23331 362.454 8.24832 363.935 8.16872C365.416 8.08913 366.906 8.35776 368.277 7.94984C369.718 9.00447 371.308 9.19352 372.889 8.11898C374.47 7.50212 376.04 8.09908 377.461 7.81055C378.742 6.13904 380.042 6.22859 381.353 6.72606C382.664 5.63163 383.974 5.76096 385.275 5.57193C386.725 4.83567 388.176 5.79081 389.627 4.82572C391.077 3.60194 392.538 5.55203 393.999 4.22876C395.709 3.86063 397.41 3.41291 399.071 3.10447C400.722 2.6667 402.342 0.776306 403.883 1.25388C405.634 -0.934994 407.165 0.467876 408.725 0.189293C410.296 0.666866 411.907 1.42302 413.828 0.796207C415.728 1.8011 417.129 -0.139042 418.73 1.46281C420 -0.417625 420.811 2.5274 421.901 3.21392C423.052 2.75624 423.952 6.20869 425.053 6.42758C426.403 6.73601 427.804 8.07918 429.575 7.16384C430.845 6.8952 432.386 8.39756 433.917 6.92505C435.447 7.67126 436.958 7.49217 438.179 7.23349C439.409 6.57682 439.819 9.30297 441.17 7.96974C443.631 8.08913 445.772 7.8802 448.303 7.16384C449.554 8.54681 450.994 8.08913 452.435 7.38272C453.876 7.30313 455.306 7.96974 456.537 7.22353C457.768 8.6264 458.938 6.46738 460.099 5.60178C461.259 4.99487 462.42 4.52723 463.64 3.97007C466.832 3.77108 470.033 5.36299 473.215 4.68643C476.406 6.70616 479.567 6.0296 482.689 6.37783C484.8 7.08424 487.131 7.59166 489.462 6.07935C491.783 6.66636 494.094 5.75102 496.155 6.33804C497.526 8.25827 498.906 5.66147 500.297 7.21358C501.687 7.95979 503.078 9.5716 504.479 7.97969C505.339 9.90988 506.79 6.90515 507.65 7.98964C509.311 10.079 509.181 6.58677 510.081 6.01965C511.012 5.00481 511.942 2.02993 513.483 2.35826C514.823 0.467873 517.805 2.37816 519.656 2.47765L522.657 3.80093C524.358 4.84562 526.429 5.82066 528.159 6.28828C529.89 7.09419 530.841 9.27311 532.661 9.27311C534.472 10.5367 538.864 12.9743 540.665 12.1883C543.806 11.7804 544.807 15.6208 548.008 14.9244C551.21 15.1831 554.421 14.1782 557.633 14.3672C560.834 14.3473 564.026 12.5365 567.177 13.2628C570.298 11.9296 573.41 12.3972 576.531 12.1883C579.653 11.9794 582.774 11.8898 585.906 11.86C589.037 12.1385 592.178 13.2429 595.34 11.8898C598.181 12.9445 601.042 10.3576 603.914 11.0541C606.775 10.9645 609.646 9.77058 612.498 9.24326C615.349 9.4323 618.2 6.62657 621.011 7.62151C623.453 6.38778 626.004 6.33804 628.525 6.94495C631.056 7.36283 633.557 6.59672 635.918 5.57193C637.569 3.68153 639.21 3.81088 640.87 4.76603C642.541 4.71628 644.222 4.80582 645.963 4.80582C649.054 6.18879 652.186 5.13416 655.307 4.66653C658.438 4.00987 661.56 5.9699 664.641 4.93516C666.762 5.45253 668.853 5.70127 670.934 6.03955C672.977 5.884 675.011 6.50742 677.072 7.13938L677.217 7.18373C678.598 6.52707 679.968 7.94984 681.349 7.60161C682.719 8.32792 684.1 8.7259 685.491 8.04934C686.951 7.81055 688.442 7.37278 689.943 8.65625L689.995 8.67127C691.469 9.09438 692.961 9.52295 694.425 8.77564C696.105 8.79554 697.706 9.64124 699.307 8.27817C700.908 7.00465 702.518 7.29318 704.229 8.00954C706.27 7.97969 708.281 7.66131 710.282 7.27328L710.359 7.26753C712.334 7.12034 714.299 6.97386 716.275 6.13904C718.015 5.77091 721.097 4.49739 722.918 5.53214C723.308 6.22859 723.958 6.39773 724.118 6.19875C725.589 5.87041 726.589 7.01459 727.95 7.14394C729.04 6.55692 729.471 7.38272 730.771 8.77564C731.862 9.68104 733.202 8.92488 734.543 8.93483C735.884 9.5517 737.224 9.57159 738.325 8.73584C740.816 8.73584 743.247 9.69099 745.658 8.7259C748.069 9.19352 750.45 9.09402 752.861 8.04934C755.652 6.37783 758.454 7.81055 761.255 6.75591C764.056 6.92505 766.868 7.00464 769.689 5.76097C773.3 4.28845 777.012 4.02977 780.744 5.25354C784.476 4.2785 788.247 6.0097 791.969 5.83061C795.691 6.55692 799.372 6.20869 802.954 6.96485C805.355 6.0893 807.746 6.44748 810.157 7.77076C812.558 8.10904 814.969 8.90499 817.39 7.96974C819.601 8.21848 820.652 6.935 822.863 6.37783C825.924 4.61679 828.966 6.9151 832.027 6.935C835.078 6.40768 838.13 8.5866 841.221 7.18373C842.402 5.76097 843.212 5.55203 844.363 6.33804C845.603 5.94006 847.004 6.8355 848.414 6.17884C849.825 6.26838 851.246 5.79082 852.536 6.40768C855.528 5.38289 858.699 5.54208 861.871 5.0844C865.042 4.51729 868.223 3.96012 871.205 4.95507C872.545 5.19385 873.806 6.69621 875.057 6.51712C876.317 5.79082 877.568 8.94478 878.888 7.98964C880.209 9.23331 881.69 8.24832 883.17 8.16872C884.651 8.08913 886.142 8.35776 887.512 7.94984C888.953 9.00447 890.544 9.19352 892.124 8.11898C893.705 7.50212 895.276 8.09908 896.696 7.81055C897.977 6.13904 899.277 6.22859 900.588 6.72606C901.899 5.63163 903.209 5.76096 904.51 5.57193C905.961 4.83567 907.411 5.79081 908.862 4.82572C910.312 3.60194 911.773 5.55203 913.234 4.22876C914.945 3.86063 916.645 3.41291 918.306 3.10447C919.957 2.6667 921.578 0.776306 923.118 1.25388C924.869 -0.934994 926.4 0.467876 927.961 0.189293C929.531 0.666866 931.142 1.42302 933.063 0.796207C934.964 1.8011 936.364 -0.139042 937.965 1.46281C939.236 -0.417625 940.046 2.5274 941.136 3.21392C942.287 2.75624 943.187 6.20869 944.288 6.42758C945.639 6.73601 947.039 8.07918 948.81 7.16384C950.081 6.8952 951.621 8.39756 953.152 6.92505C954.683 7.67126 956.193 7.49217 957.414 7.23349C958.644 6.57682 959.055 9.30297 960.405 7.96974C962.866 8.08913 965.007 7.8802 967.538 7.16384C968.789 8.54681 970.23 8.08913 971.67 7.38272C973.111 7.30313 974.542 7.96974 975.772 7.22353C977.003 8.6264 978.173 6.46738 979.334 5.60178C980.494 4.99487 981.655 4.52723 982.875 3.97007C986.067 3.77108 989.268 5.36299 992.45 4.68643C995.641 6.70616 998.803 6.0296 1001.92 6.37783C1004.03 7.08424 1006.37 7.59166 1008.7 6.07935C1011.02 6.66636 1013.33 5.75102 1015.39 6.33804C1016.76 8.25827 1018.14 5.66147 1019.53 7.21358C1020.92 7.95979 1022.31 9.5716 1023.71 7.97969C1024.57 9.90988 1026.02 6.90515 1026.89 7.98964C1028.55 10.079 1028.42 6.58677 1029.32 6.01965C1030.25 5.00481 1031.18 2.02993 1032.72 2.35826C1034.06 0.467873 1035.54 2.25877 1037.39 2.35826L1041.39 3.80093C1043.09 4.84562 1045.66 9.80043 1047.39 10.2681C1049.13 11.074 1050.08 12.7554 1051.9 12.7554C1053.71 14.019 1055.6 15.1532 1057.4 14.3672C1060.54 13.9593 1063.55 15.6208 1066.75 14.9244C1069.95 15.1831 1073.17 14.1782 1076.38 14.3672C1079.58 14.3473 1082.77 12.5365 1085.92 13.2628C1089.04 11.9296 1092.15 12.3972 1095.28 12.1883C1098.4 11.9794 1101.52 11.8898 1104.65 11.86C1107.78 12.1385 1110.92 13.2429 1114.08 11.8898C1116.93 12.9445 1119.79 10.3576 1122.66 11.0541C1125.52 10.9645 1128.39 9.77058 1131.24 9.24326C1134.09 9.4323 1136.95 6.62657 1139.76 7.62151C1142.2 6.38778 1144.75 6.33804 1147.27 6.94495C1149.8 7.36282 1152.3 6.59672 1154.66 5.57193C1156.31 3.68153 1157.95 3.81088 1159.62 4.76603C1161.29 4.71628 1162.97 4.80582 1164.71 4.80582C1167.8 6.18879 1170.93 5.13416 1174.05 4.66653C1177.18 4.00987 1180.3 5.9699 1183.39 4.93516C1185.51 5.45253 1187.6 5.70127 1189.68 6.03955C1191.72 5.884 1193.76 6.50744 1195.82 7.1394L1195.96 7.18373C1197.34 6.52707 1198.71 7.94984 1200.09 7.60161C1201.46 8.32792 1202.85 8.7259 1204.24 8.04934C1205.7 7.81055 1207.19 7.37278 1208.69 8.65625L1208.74 8.67128C1210.21 9.09439 1211.71 9.52295 1213.17 8.77564C1214.85 8.79554 1216.45 9.64124 1218.05 8.27817C1219.65 7.00465 1221.26 7.29318 1222.97 8.00954C1225.02 7.97969 1227.03 7.66131 1229.03 7.27328L1229.1 7.26753C1231.08 7.12034 1233.04 6.97386 1235.02 6.13904C1236.76 5.77092 1239.84 4.49739 1241.66 5.53214C1242.05 6.2286 1242.7 6.39774 1242.86 6.19875C1244.33 5.87041 1245.33 7.01459 1246.69 7.14394C1247.79 6.55692 1248.22 7.38272 1249.52 8.77564C1250.61 9.68104 1251.95 8.92489 1253.29 8.93483C1254.63 9.5517 1255.97 9.5716 1257.07 8.73584C1259.56 8.73584 1261.99 9.69099 1264.4 8.7259C1266.81 9.19352 1269.2 9.09402 1271.61 8.04934C1274.4 6.37783 1277.2 7.81055 1280 6.75591V38L0 38Z" fill="#F1EEEA"/>
</svg>
