<svg width="1223" height="245" viewBox="0 0 1223 245" fill="none" xmlns="http://www.w3.org/2000/svg">
<path d="M136.285 11.24C152.583 11.24 167.382 13.8627 180.683 19.108C193.984 24.3533 204.568 32.6897 212.436 44.117C220.491 55.357 224.519 70.1563 224.519 88.515C224.519 104.251 221.896 118.488 216.651 131.227C211.593 143.966 204.943 154.831 196.7 163.823C188.645 172.815 179.84 179.746 170.286 184.617C160.732 189.3 151.459 191.642 142.467 191.642C134.974 191.642 129.635 190.143 126.45 187.146C123.453 184.149 121.86 180.402 121.673 175.906C121.486 171.41 121.86 167.008 122.797 162.699C123.921 158.203 124.858 154.737 125.607 152.302L142.748 68.564C147.431 68.564 152.302 68.283 157.36 67.721C162.605 67.159 167.289 66.1287 171.41 64.63L148.087 167.195C147.15 171.316 146.588 174.688 146.401 177.311C146.401 179.934 147.057 181.807 148.368 182.931C149.867 183.868 152.021 184.149 154.831 183.774C160.264 183.212 166.633 180.777 173.939 176.468C181.245 171.972 188.27 165.696 195.014 157.641C201.945 149.586 207.659 139.751 212.155 128.136C216.651 116.521 218.899 103.221 218.899 88.234C218.899 70.812 215.059 56.8557 207.378 46.365C199.885 35.8743 189.862 28.2873 177.311 23.604C164.947 18.7333 151.365 16.298 136.566 16.298C122.703 16.298 109.309 18.7333 96.383 23.604C83.457 28.4747 71.4676 35.406 60.415 44.398C49.3623 53.2027 39.7146 63.5997 31.472 75.589C23.4166 87.391 17.0473 100.317 12.364 114.367C7.86796 128.417 5.61996 143.029 5.61996 158.203C5.61996 177.498 9.27296 193.047 16.579 204.849C23.885 216.838 33.9073 225.549 46.646 230.982C59.572 236.415 74.184 239.131 90.482 239.131C100.598 239.131 110.433 237.913 119.987 235.478C129.728 233.23 139.189 229.39 148.368 223.957L150.335 227.61C143.404 232.481 134.786 236.415 124.483 239.412C114.18 242.597 102.752 244.189 90.201 244.189C72.5916 244.189 56.9493 241.192 43.274 235.197C29.786 229.202 19.2016 219.929 11.521 207.378C3.8403 194.827 -3.69921e-05 178.622 -3.69921e-05 158.765C-3.69921e-05 143.591 2.24796 128.885 6.74396 114.648C11.24 100.223 17.6093 86.829 25.852 74.465C34.282 61.9137 44.117 50.9547 55.357 41.588C66.7843 32.034 79.242 24.6343 92.73 19.389C106.405 13.9563 120.924 11.24 136.285 11.24ZM119.425 64.63C124.296 64.63 128.417 65.6603 131.789 67.721C135.161 69.7817 137.596 72.779 139.095 76.713C140.781 80.647 141.343 85.5177 140.781 91.325L138.252 92.73C138.439 88.4213 137.971 84.7683 136.847 81.771C135.723 78.5863 133.943 76.2447 131.508 74.746C129.073 73.06 126.075 72.217 122.516 72.217C116.896 72.217 111.557 74.6523 106.499 79.523C101.441 84.3937 96.945 90.9503 93.011 99.193C89.077 107.248 85.986 116.24 83.738 126.169C81.49 135.91 80.366 145.745 80.366 155.674C80.366 164.666 81.5836 171.223 84.019 175.344C86.4543 179.465 89.8263 181.526 94.135 181.526C101.066 181.526 107.904 176.374 114.648 166.071C121.579 155.58 127.293 141.062 131.789 122.516L133.756 127.293C129.822 142.28 125.42 154.55 120.549 164.104C115.678 173.471 110.152 180.402 103.97 184.898C97.9753 189.394 90.8566 191.642 82.614 191.642C75.6826 191.642 69.969 190.237 65.473 187.427C61.1643 184.43 57.886 180.308 55.638 175.063C53.5773 169.818 52.547 163.729 52.547 156.798C52.547 146.307 54.4203 135.723 58.167 125.045C62.101 114.18 67.2526 104.251 73.622 95.259C79.9913 86.0797 87.11 78.68 94.978 73.06C103.033 67.44 111.182 64.63 119.425 64.63ZM398.23 -3.15905e-06V5.61999C394.483 6.55666 390.643 9.17932 386.709 13.488C382.962 17.6093 378.747 24.166 374.064 33.158L318.707 143.029H311.12L245.366 21.637C241.619 14.893 238.434 10.5843 235.812 8.71099C233.376 6.83765 231.128 5.90099 229.068 5.90099V-3.15905e-06C233.189 0.187328 237.498 0.374659 241.994 0.56199C246.49 0.749321 251.36 0.842986 256.606 0.842986C263.35 0.842986 270.656 0.842986 278.524 0.842986C286.392 0.655655 293.698 0.374659 300.442 -3.15905e-06V5.90099C295.758 5.90099 291.543 6.36932 287.797 7.30599C284.237 8.24265 281.802 10.116 280.491 12.926C279.367 15.5487 280.116 19.389 282.739 24.447L329.104 113.524L324.608 118.301L359.171 49.456C364.978 38.0287 367.882 29.224 367.882 23.042C368.069 16.6727 366.008 12.2703 361.7 9.83499C357.578 7.21232 351.584 5.80732 343.716 5.61999V-3.15905e-06C349.523 0.187328 355.237 0.374659 360.857 0.56199C366.477 0.749321 371.816 0.842986 376.874 0.842986C381.557 0.842986 385.585 0.749321 388.957 0.56199C392.329 0.374659 395.42 0.187328 398.23 -3.15905e-06ZM333.6 108.466V169.162C333.6 175.906 334.162 180.964 335.286 184.336C336.41 187.708 338.564 189.956 341.749 191.08C344.933 192.204 349.617 192.953 355.799 193.328V198.948C351.303 198.573 345.589 198.386 338.658 198.386C331.726 198.199 324.701 198.105 317.583 198.105C309.902 198.105 302.596 198.199 295.665 198.386C288.733 198.386 283.207 198.573 279.086 198.948V193.328C285.455 192.953 290.232 192.204 293.417 191.08C296.601 189.956 298.662 187.708 299.599 184.336C300.723 180.964 301.285 175.906 301.285 169.162V111.557L319.55 128.979L333.6 108.466ZM410.19 -3.15905e-06C414.498 0.187328 420.025 0.374659 426.769 0.56199C433.7 0.749321 440.538 0.842986 447.282 0.842986C456.274 0.842986 464.797 0.749321 472.853 0.56199C481.095 0.374659 486.903 0.280993 490.275 0.280993C506.198 0.280993 519.405 2.34166 529.896 6.46298C540.574 10.5843 548.442 16.3917 553.5 23.885C558.745 31.191 561.368 39.621 561.368 49.175C561.368 54.9823 560.15 61.1643 557.715 67.721C555.467 74.0903 551.439 80.085 545.632 85.705C539.824 91.1377 531.956 95.6337 522.028 99.193C512.099 102.752 499.454 104.532 484.093 104.532H457.117V98.912H481.283C493.834 98.912 503.388 96.8513 509.945 92.73C516.689 88.4213 521.185 82.8013 523.433 75.87C525.868 68.7513 527.086 60.8833 527.086 52.266C527.086 37.4667 523.901 26.0393 517.532 17.984C511.162 9.74132 500.11 5.61999 484.374 5.61999C476.318 5.61999 470.979 7.21233 468.357 10.397C465.921 13.5817 464.704 20.0447 464.704 29.786V169.162C464.704 175.906 465.266 180.964 466.39 184.336C467.514 187.708 469.668 189.956 472.853 191.08C476.037 192.204 480.721 192.953 486.903 193.328V198.948C482.407 198.573 476.693 198.386 469.762 198.386C463.018 198.199 456.086 198.105 448.968 198.105C441.1 198.105 433.7 198.199 426.769 198.386C420.025 198.386 414.498 198.573 410.19 198.948V193.328C416.559 192.953 421.336 192.204 424.521 191.08C427.705 189.956 429.766 187.708 430.703 184.336C431.827 180.964 432.389 175.906 432.389 169.162V29.786C432.389 22.8546 431.827 17.7967 430.703 14.612C429.766 11.24 427.612 8.99199 424.24 7.868C421.055 6.55666 416.372 5.80732 410.19 5.61999V-3.15905e-06ZM457.679 99.755C467.233 100.13 474.913 100.598 480.721 101.16C486.528 101.535 491.399 101.909 495.333 102.284C499.267 102.659 502.92 103.127 506.292 103.689C520.342 105.562 530.551 109.309 536.921 114.929C543.477 120.549 547.973 129.166 550.409 140.781L557.434 169.443C559.12 177.498 560.899 183.212 562.773 186.584C564.833 189.956 567.831 191.642 571.765 191.642C574.762 191.455 577.197 190.612 579.071 189.113C581.131 187.427 583.286 185.179 585.534 182.369L589.468 185.46C585.159 191.267 580.663 195.67 575.98 198.667C571.296 201.477 565.021 202.882 557.153 202.882C549.097 202.882 542.166 200.821 536.359 196.7C530.739 192.391 526.711 184.336 524.276 172.534L518.656 144.434C516.97 136.379 515.096 129.447 513.036 123.64C510.975 117.645 508.071 112.962 504.325 109.59C500.765 106.218 495.52 104.532 488.589 104.532H458.241L457.679 99.755ZM824.689 -3.15905e-06V5.61999C818.32 5.80732 813.543 6.55666 810.358 7.868C807.173 8.99199 805.019 11.24 803.895 14.612C802.958 17.7967 802.49 22.8546 802.49 29.786V169.162C802.49 175.906 802.958 180.964 803.895 184.336C805.019 187.708 807.173 189.956 810.358 191.08C813.543 192.204 818.32 192.953 824.689 193.328V198.948C820.006 198.573 814.198 198.386 807.267 198.386C800.336 198.199 793.311 198.105 786.192 198.105C778.324 198.105 770.924 198.199 763.993 198.386C757.062 198.386 751.535 198.573 747.414 198.948V193.328C753.783 192.953 758.56 192.204 761.745 191.08C765.117 189.956 767.365 187.708 768.489 184.336C769.613 180.964 770.175 175.906 770.175 169.162V15.455L771.58 16.017L702.454 200.072H697.958L625.46 17.984V161.856C625.46 169.724 626.022 175.906 627.146 180.402C628.27 184.711 630.705 187.802 634.452 189.675C638.199 191.548 643.912 192.766 651.593 193.328V198.948C648.034 198.573 643.444 198.386 637.824 198.386C632.391 198.199 627.24 198.105 622.369 198.105C617.686 198.105 613.002 198.199 608.319 198.386C603.636 198.386 599.795 198.573 596.798 198.948V193.328C602.98 192.766 607.663 191.642 610.848 189.956C614.033 188.083 616.187 184.992 617.311 180.683C618.435 176.374 618.997 170.473 618.997 162.98V29.786C618.997 22.8546 618.435 17.7967 617.311 14.612C616.187 11.24 614.033 8.99199 610.848 7.868C607.663 6.55666 602.98 5.80732 596.798 5.61999V-3.15905e-06C599.795 0.187328 603.636 0.374659 608.319 0.56199C613.002 0.749321 617.686 0.842986 622.369 0.842986C627.802 0.842986 633.234 0.749321 638.667 0.56199C644.287 0.374659 649.064 0.187328 652.998 -3.15905e-06L715.099 159.608L709.76 163.261L770.737 0.842986C773.172 0.842986 775.701 0.842986 778.324 0.842986C780.947 0.842986 783.569 0.842986 786.192 0.842986C793.311 0.842986 800.336 0.749321 807.267 0.56199C814.198 0.374659 820.006 0.187328 824.689 -3.15905e-06ZM923.221 -3.15905e-06V5.61999C917.039 5.80732 912.356 6.55666 909.171 7.868C905.986 8.99199 903.832 11.24 902.708 14.612C901.584 17.7967 901.022 22.8546 901.022 29.786V169.162C901.022 175.906 901.584 180.964 902.708 184.336C903.832 187.708 905.986 189.956 909.171 191.08C912.356 192.204 917.039 192.953 923.221 193.328V198.948C918.725 198.573 913.011 198.386 906.08 198.386C899.336 198.199 892.405 198.105 885.286 198.105C877.418 198.105 870.018 198.199 863.087 198.386C856.343 198.386 850.817 198.573 846.508 198.948V193.328C852.877 192.953 857.654 192.204 860.839 191.08C864.024 189.956 866.084 187.708 867.021 184.336C868.145 180.964 868.707 175.906 868.707 169.162V29.786C868.707 22.8546 868.145 17.7967 867.021 14.612C866.084 11.24 863.93 8.99199 860.558 7.868C857.373 6.55666 852.69 5.80732 846.508 5.61999V-3.15905e-06C850.817 0.187328 856.343 0.374659 863.087 0.56199C870.018 0.749321 877.418 0.842986 885.286 0.842986C892.405 0.842986 899.336 0.749321 906.08 0.56199C913.011 0.374659 918.725 0.187328 923.221 -3.15905e-06ZM1021.74 -3.15905e-06V5.61999C1015.55 5.80732 1010.87 6.55666 1007.69 7.868C1004.5 8.99199 1002.35 11.24 1001.22 14.612C1000.1 17.7967 999.537 22.8546 999.537 29.786V169.162C999.537 175.906 1000.1 180.964 1001.22 184.336C1002.35 187.708 1004.5 189.956 1007.69 191.08C1010.87 192.204 1015.55 192.953 1021.74 193.328V198.948C1017.24 198.573 1011.53 198.386 1004.59 198.386C997.851 198.199 990.919 198.105 983.801 198.105C975.933 198.105 968.533 198.199 961.602 198.386C954.858 198.386 949.331 198.573 945.023 198.948V193.328C951.392 192.953 956.169 192.204 959.354 191.08C962.538 189.956 964.599 187.708 965.536 184.336C966.66 180.964 967.222 175.906 967.222 169.162V29.786C967.222 22.8546 966.66 17.7967 965.536 14.612C964.599 11.24 962.445 8.99199 959.073 7.868C955.888 6.55666 951.205 5.80732 945.023 5.61999V-3.15905e-06C949.331 0.187328 954.858 0.374659 961.602 0.56199C968.533 0.749321 975.933 0.842986 983.801 0.842986C990.919 0.842986 997.851 0.749321 1004.59 0.56199C1011.53 0.374659 1017.24 0.187328 1021.74 -3.15905e-06ZM1043.54 -3.15905e-06C1047.85 0.187328 1053.37 0.374659 1060.12 0.56199C1067.05 0.749321 1073.89 0.842986 1080.63 0.842986C1089.62 0.842986 1098.15 0.749321 1106.2 0.56199C1114.44 0.374659 1120.25 0.280993 1123.62 0.280993C1139.55 0.280993 1152.75 2.34166 1163.24 6.46298C1173.92 10.5843 1181.79 16.3917 1186.85 23.885C1192.09 31.191 1194.72 39.621 1194.72 49.175C1194.72 54.9823 1193.5 61.1643 1191.06 67.721C1188.81 74.0903 1184.79 80.085 1178.98 85.705C1173.17 91.1377 1165.3 95.6337 1155.38 99.193C1145.45 102.752 1132.8 104.532 1117.44 104.532H1090.46V98.912H1114.63C1127.18 98.912 1136.74 96.8513 1143.29 92.73C1150.04 88.4213 1154.53 82.8013 1156.78 75.87C1159.22 68.7513 1160.43 60.8833 1160.43 52.266C1160.43 37.4667 1157.25 26.0393 1150.88 17.984C1144.51 9.74132 1133.46 5.61999 1117.72 5.61999C1109.67 5.61999 1104.33 7.21233 1101.7 10.397C1099.27 13.5817 1098.05 20.0447 1098.05 29.786V169.162C1098.05 175.906 1098.61 180.964 1099.74 184.336C1100.86 187.708 1103.02 189.956 1106.2 191.08C1109.39 192.204 1114.07 192.953 1120.25 193.328V198.948C1115.75 198.573 1110.04 198.386 1103.11 198.386C1096.37 198.199 1089.43 198.105 1082.32 198.105C1074.45 198.105 1067.05 198.199 1060.12 198.386C1053.37 198.386 1047.85 198.573 1043.54 198.948V193.328C1049.91 192.953 1054.68 192.204 1057.87 191.08C1061.05 189.956 1063.11 187.708 1064.05 184.336C1065.17 180.964 1065.74 175.906 1065.74 169.162V29.786C1065.74 22.8546 1065.17 17.7967 1064.05 14.612C1063.11 11.24 1060.96 8.99199 1057.59 7.868C1054.4 6.55666 1049.72 5.80732 1043.54 5.61999V-3.15905e-06ZM1091.03 99.755C1100.58 100.13 1108.26 100.598 1114.07 101.16C1119.88 101.535 1124.75 101.909 1128.68 102.284C1132.61 102.659 1136.27 103.127 1139.64 103.689C1153.69 105.562 1163.9 109.309 1170.27 114.929C1176.83 120.549 1181.32 129.166 1183.76 140.781L1190.78 169.443C1192.47 177.498 1194.25 183.212 1196.12 186.584C1198.18 189.956 1201.18 191.642 1205.11 191.642C1208.11 191.455 1210.55 190.612 1212.42 189.113C1214.48 187.427 1216.63 185.179 1218.88 182.369L1222.82 185.46C1218.51 191.267 1214.01 195.67 1209.33 198.667C1204.64 201.477 1198.37 202.882 1190.5 202.882C1182.45 202.882 1175.51 200.821 1169.71 196.7C1164.09 192.391 1160.06 184.336 1157.62 172.534L1152 144.434C1150.32 136.379 1148.44 129.447 1146.38 123.64C1144.32 117.645 1141.42 112.962 1137.67 109.59C1134.11 106.218 1128.87 104.532 1121.94 104.532H1091.59L1091.03 99.755Z" fill="#DFBC94"/>
</svg>
