<svg width="48" height="48" viewBox="0 0 48 48" fill="none" xmlns="http://www.w3.org/2000/svg">
<rect x="1" y="1" width="46" height="46" rx="3" stroke="#3E2723" stroke-width="2"/>
<path d="M30.096 28.416C29.136 29.472 27.792 30 27.168 30C26.448 30 26.064 29.568 25.968 28.896C25.92 28.656 25.968 28.368 26.016 28.128C26.256 26.64 26.784 25.68 26.784 25.44C26.784 25.344 26.736 25.296 26.688 25.296C26.208 25.296 24.576 26.976 24.336 28.08L24.144 28.992C24 29.616 23.424 30 22.992 30C22.8 30 22.656 29.904 22.608 29.664C22.608 29.568 22.608 29.472 22.608 29.376L22.704 28.896C21.84 29.568 20.88 30 20.448 30C19.824 30 19.488 29.664 19.392 29.184C19.008 29.712 18.48 30 17.904 30C17.184 30 16.512 29.52 16.176 28.8C15.696 29.328 15.12 29.856 14.448 30.288C13.44 30.912 12.336 31.44 11.04 31.44C9.84001 31.44 8.78401 30.816 8.25601 30.288C7.39201 29.52 6.96001 28.32 6.81601 27.264C6.38401 23.904 8.44801 19.44 11.664 17.52C12.384 17.088 13.2 16.848 13.968 16.848C15.504 16.848 16.656 17.952 16.8 19.248C16.944 20.448 16.464 21.456 15.168 22.08C14.496 22.416 14.16 22.416 14.064 22.224C14.016 22.128 14.016 21.936 14.16 21.84C15.408 20.832 15.408 19.968 15.264 18.768C15.168 18 14.688 17.52 14.112 17.52C11.616 17.52 8.16001 22.944 8.64001 26.88C8.83201 28.416 9.79201 30.192 11.712 30.192C12.336 30.192 13.056 30 13.632 29.712C14.688 29.184 15.312 28.752 15.888 28.032C15.744 26.208 17.328 23.904 19.632 23.904C20.64 23.904 21.456 24.288 21.552 25.104C21.696 26.112 20.832 26.304 20.496 26.304C20.208 26.304 19.776 26.208 19.728 25.968C19.68 25.68 20.352 25.824 20.256 25.2C20.208 24.816 19.776 24.672 19.392 24.672C17.952 24.672 17.136 26.688 17.28 27.936C17.328 28.512 17.664 29.088 18.144 29.088C18.576 29.088 19.2 28.464 19.392 27.6C19.536 26.976 20.112 26.592 20.544 26.592C20.784 26.592 20.928 26.688 20.928 26.928C20.928 27.024 20.928 27.12 20.928 27.216C20.88 27.456 20.688 28.368 20.688 28.512C20.688 28.656 20.784 28.896 21.072 28.896C21.312 28.896 22.08 28.464 22.848 27.792C23.088 26.592 23.376 25.104 23.376 25.008C23.472 24.528 23.664 24 24.624 24C24.816 24 24.96 24.096 25.008 24.336C25.008 24.432 25.008 24.528 25.008 24.624L24.768 25.92C25.632 24.768 26.976 23.904 27.792 23.904C28.128 23.904 28.416 24.096 28.464 24.432C28.512 24.624 28.416 24.96 28.32 25.344C28.032 26.112 27.696 27.312 27.504 28.32C27.456 28.56 27.552 28.848 27.936 28.848C28.272 28.848 29.28 28.464 30.096 27.36C30.096 27.216 30.096 27.072 30.096 26.88C30.096 26.016 30.144 25.344 30.336 24.816C30.48 24.288 31.152 23.808 31.584 23.808C31.824 23.808 31.968 23.952 31.968 24.192C31.968 24.288 31.968 24.384 31.92 24.48C31.632 25.392 31.44 26.208 31.44 27.024C31.44 27.504 31.536 28.224 31.632 28.608C31.632 28.704 31.68 28.752 31.776 28.752C31.92 28.752 32.88 27.84 33.552 26.688C32.928 26.304 32.592 25.584 32.592 24.72C32.592 23.28 33.456 22.512 34.32 22.512C34.992 22.512 35.568 22.992 35.568 23.952C35.568 24.576 35.328 25.248 34.992 25.92C34.992 25.92 35.136 25.92 35.184 25.92C35.712 25.92 36.096 25.68 36.336 25.392C36.432 25.296 36.528 25.2 36.624 25.152C37.296 24.336 38.304 23.76 39.456 23.76C40.464 23.76 41.28 24.144 41.376 24.96C41.52 25.968 40.608 26.208 40.32 26.208C40.032 26.208 39.552 26.112 39.552 25.872C39.504 25.632 40.176 25.728 40.128 25.104C40.08 24.72 39.648 24.528 39.264 24.528C37.92 24.528 37.008 26.304 37.152 27.792C37.2 28.368 37.488 28.944 38.016 28.944C38.448 28.944 39.072 28.32 39.312 27.456C39.456 26.88 40.032 26.448 40.464 26.448C40.656 26.448 40.848 26.544 40.848 26.784C40.848 26.928 40.8 27.168 40.608 28.128C40.512 28.512 40.512 28.896 40.512 29.136C40.608 29.712 40.848 30.096 41.088 30.336C41.184 30.432 41.232 30.528 41.232 30.576C41.232 30.72 41.136 30.864 40.944 30.864C40.896 30.864 40.8 30.864 40.752 30.816C39.696 30.384 39.264 29.664 39.168 29.04C38.784 29.568 38.256 29.808 37.68 29.808C36.768 29.808 35.856 28.992 35.712 27.936C35.664 27.504 35.712 27.024 35.856 26.592C35.472 26.832 35.088 26.976 34.704 26.976C34.56 26.976 34.464 26.976 34.368 26.976C33.456 28.272 32.496 29.184 31.776 29.616C31.488 29.76 31.2 29.856 31.008 29.856C30.864 29.856 30.672 29.808 30.576 29.664C30.288 29.472 30.144 28.992 30.096 28.416ZM33.36 24.096C33.36 24.672 33.648 25.248 33.984 25.632C34.128 25.248 34.224 24.864 34.224 24.48C34.224 23.76 33.936 23.424 33.744 23.424C33.456 23.424 33.36 23.808 33.36 24.096Z" fill="#3E2723"/>
</svg>
