<svg width="48" height="48" viewBox="0 0 48 48" fill="none" xmlns="http://www.w3.org/2000/svg">
<rect x="1" y="1" width="46" height="46" rx="3" stroke="#3E2723" stroke-width="2"/>
<path d="M36.5449 9.5L36.498 10.043L34.3203 35.2432L34.29 35.5859L33.959 35.6807L24.1367 38.4805L24 38.5195L23.8633 38.4805L14.041 35.6807L13.71 35.5859L13.6797 35.2432L11.502 10.043L11.4551 9.5H36.5449ZM17.1943 17.7402H28.7656L28.7188 18.2832L28.4463 21.4531L28.4072 21.9102H17.5518L17.7295 24H28.2412L28.1934 24.5439L27.8438 28.5439L27.8135 28.8877L27.4805 28.9814L24.1357 29.9209L24.001 29.959L23.8662 29.9219L20.5117 28.9922L20.1777 28.8994L20.1475 28.5547L19.9648 26.5H17.9521L18.293 30.4746L24.001 32.1289L29.6865 30.5127L30.9717 15.6504H17.0098L17.1943 17.7402Z" stroke="#3E2723"/>
</svg>
