<svg width="48" height="48" viewBox="0 0 48 48" fill="none" xmlns="http://www.w3.org/2000/svg">
<rect x="1" y="1" width="46" height="46" rx="3" stroke="#3E2723" stroke-width="2"/>
<path d="M18.8 28.8C17.527 28.8 16.3061 29.3057 15.4059 30.2059C14.5057 31.106 14 32.3269 14 33.6C14 34.873 14.5057 36.0939 15.4059 36.9941C16.3061 37.8943 17.527 38.4 18.8 38.4C20.073 38.4 21.2939 37.8943 22.1941 36.9941C23.0943 36.0939 23.6 34.873 23.6 33.6V28.8M18.8 28.8H23.6M18.8 28.8C17.527 28.8 16.3061 28.2943 15.4059 27.3941C14.5057 26.4939 14 25.273 14 24C14 22.7269 14.5057 21.506 15.4059 20.6059C16.3061 19.7057 17.527 19.2 18.8 19.2M23.6 28.8V24.0054M23.6 19.2H18.8M23.6 19.2V9.59998M23.6 19.2H28.4M23.6 19.2V23.9946M18.8 19.2C17.527 19.2 16.3061 18.6943 15.4059 17.7941C14.5057 16.8939 14 15.673 14 14.4C14 13.1269 14.5057 11.906 15.4059 11.0059C16.3061 10.1057 17.527 9.59998 18.8 9.59998H23.6M23.6 9.59998H28.4C29.673 9.59998 30.8939 10.1057 31.7941 11.0059C32.6943 11.906 33.2 13.1269 33.2 14.4C33.2 15.673 32.6943 16.8939 31.7941 17.7941C30.8939 18.6943 29.673 19.2 28.4 19.2M28.4 19.2C27.4507 19.2 26.5226 19.4815 25.7333 20.0089C24.9439 20.5364 24.3287 21.286 23.9654 22.1631C23.7237 22.7466 23.6007 23.3691 23.6 23.9946M28.4 19.2C29.673 19.2 30.8939 19.7057 31.7941 20.6059C32.6943 21.506 33.2 22.7269 33.2 24C33.2 24.9493 32.9185 25.8774 32.3911 26.6667C31.8636 27.4561 31.114 28.0713 30.2369 28.4346C29.3598 28.7979 28.3947 28.893 27.4636 28.7077C26.5325 28.5225 25.6772 28.0654 25.0059 27.3941C24.3346 26.7228 23.8774 25.8675 23.6922 24.9364C23.6309 24.6283 23.6003 24.3165 23.6 24.0054M23.6 23.9946V24.0054" stroke="#3E2723" stroke-miterlimit="1.43956" stroke-linejoin="round"/>
</svg>
