<svg width="48" height="48" viewBox="0 0 48 48" fill="none" xmlns="http://www.w3.org/2000/svg">
<rect x="1" y="1" width="46" height="46" rx="3" stroke="#3E2723" stroke-width="2"/>
<path d="M16.488 28.704L14.94 34.608C14.94 34.764 14.844 34.8 14.64 34.8H11.76C11.556 34.8 11.52 34.74 11.556 34.5L17.136 14.976C17.27 14.4423 17.3385 13.8942 17.34 13.344C17.34 13.212 17.34 13.152 17.496 13.152H21.6C21.744 13.152 21.804 13.152 21.84 13.344L28.092 34.548C28.092 34.704 28.092 34.8 27.936 34.8H24.684C24.528 34.8 24.432 34.8 24.384 34.62L22.8 28.704H16.488ZM21.948 25.524C21.396 23.352 20.1 18.588 19.608 16.296C19.2 18.588 18.156 22.476 17.328 25.524H21.948ZM30.792 14.604C30.792 14.0725 31.0031 13.5628 31.3789 13.1869C31.7548 12.8111 32.2645 12.6 32.796 12.6C33.3275 12.6 33.8372 12.8111 34.213 13.1869C34.5889 13.5628 34.8 14.0725 34.8 14.604C34.8204 14.8755 34.7813 15.1481 34.6854 15.403C34.5896 15.6578 34.4393 15.8887 34.2451 16.0794C34.0509 16.2702 33.8174 16.4164 33.5609 16.5077C33.3044 16.5989 33.0311 16.6332 32.76 16.608C32.4937 16.6263 32.2266 16.5868 31.9771 16.492C31.7276 16.3973 31.5015 16.2496 31.3145 16.0592C31.1275 15.8687 30.9839 15.6401 30.8937 15.3888C30.8035 15.1376 30.7688 14.8699 30.792 14.604ZM31.032 19.068C31.032 18.912 31.092 18.828 31.26 18.828H34.344C34.5 18.828 34.584 18.888 34.584 19.068V34.56C34.584 34.716 34.584 34.8 34.344 34.8H31.308C31.104 34.8 31.044 34.704 31.044 34.548V19.068H31.032Z" fill="#3E2723"/>
</svg>
