<svg width="48" height="48" viewBox="0 0 48 48" fill="none" xmlns="http://www.w3.org/2000/svg">
<rect x="1" y="1" width="46" height="46" rx="3" stroke="#3E2723" stroke-width="2"/>
<path d="M21.1071 13.9822H16.2857V26.789C16.2857 29.9579 15.199 30.8427 13.3078 30.8427C12.4215 30.8427 11.6234 30.6907 11.0025 30.4773L10.5 34.2264C11.3859 34.5314 12.7455 34.7143 13.8091 34.7143C18.1513 34.7143 21.1071 32.673 21.1071 26.8204V13.9822ZM31.6217 13.5C26.9543 13.5 24 16.1517 24 19.6566C24 22.675 26.2752 24.5648 29.5833 25.7837C31.9759 26.637 32.9216 27.3994 32.9216 28.6488C32.9216 30.0203 31.8284 30.9043 29.7607 30.9043C27.8404 30.9043 26.0971 30.2631 24.9155 29.6233V29.6221L24 33.4322C25.1233 34.0733 27.2208 34.7132 29.4944 34.7132C34.96 34.7131 37.5 31.7871 37.5 28.343C37.5 25.417 35.8753 23.5276 32.3605 22.1859C29.7606 21.1498 28.6679 20.571 28.6679 19.2603C28.6679 18.2237 29.6133 17.2794 31.5633 17.2794C33.4826 17.2794 34.8024 17.9247 35.5714 18.3215L36.7241 14.4643C35.5187 13.9351 33.8953 13.5 31.6217 13.5Z" fill="#3E2723"/>
</svg>
