<svg width="48" height="48" viewBox="0 0 48 48" fill="none" xmlns="http://www.w3.org/2000/svg">
<rect x="1" y="1" width="46" height="46" rx="3" stroke="#3E2723" stroke-width="2"/>
<path d="M17.1361 13.2C15.1921 13.2 13.3441 13.2 12.0841 13.296C11.9281 13.296 11.6521 13.392 11.6521 13.536V34.56C11.6521 34.74 11.7361 34.8 11.8921 34.8H14.8801C15.0601 34.8 15.1201 34.716 15.1201 34.56V27.048H16.6441C21.0721 27.048 24.6721 24.912 24.6721 19.944C24.6721 16.176 22.5601 13.2 17.1361 13.2ZM16.7281 24C16.2005 24.0301 15.6717 24.0301 15.1441 24V16.368C15.4921 16.368 16.2361 16.308 17.0161 16.308C19.6201 16.308 21.1681 17.568 21.1681 20.052C21.1681 23.16 19.0081 24 16.7281 24ZM36.3841 30.336C36.3841 33.468 33.9841 35.136 30.7441 35.136C29.3557 35.187 27.9759 34.8987 26.7241 34.296C26.5921 34.236 26.5681 34.14 26.5681 33.984V31.08C26.5681 30.888 26.6641 30.828 26.8081 30.924C27.9778 31.6934 29.3441 32.1099 30.7441 32.124C32.3041 32.124 32.9521 31.476 32.9521 30.588C32.9521 29.7 32.4961 29.256 30.5521 28.188C27.7681 26.856 26.6041 25.5 26.6041 23.244C26.6041 20.712 28.5841 18.612 32.0161 18.612C33.2133 18.5575 34.4092 18.7453 35.5321 19.164C35.5957 19.2048 35.6471 19.262 35.6809 19.3296C35.7147 19.3972 35.7296 19.4727 35.7241 19.548V22.236C35.7241 22.404 35.6281 22.5 35.4361 22.44C34.3827 21.849 33.1873 21.5585 31.9801 21.6C30.4321 21.6 29.9041 22.392 29.9041 23.04C29.9041 23.688 30.2641 24.24 32.3041 25.308C35.4241 26.772 36.3841 28.2 36.3841 30.3V30.336Z" fill="#3E2723"/>
</svg>
