<svg width="36" height="60" viewBox="0 0 36 60" fill="none" xmlns="http://www.w3.org/2000/svg">
<path d="M1.72191 48.737C3.51882 52.9675 5.8861 57.1526 10.3145 58.9953C14.9937 60.9424 20.5959 59.8914 24.922 57.2856C26.9383 56.0709 28.7303 54.8612 30.0776 53.0113C35.5698 48.7351 36.3986 40.7164 33.5147 34.2044C31.7486 30.2167 29.151 26.4082 24.922 24.8009C20.4846 23.1141 15.4659 23.8272 11.1738 25.6558C9.22559 26.4858 7.61801 27.6686 6.01823 29.0752C7.32808 21.0225 11.7976 12.8817 18.9072 8.55864C22.0497 6.6477 25.6208 5.48431 29.2183 5.1392C30.6928 4.99773 31.7961 4.09736 31.7961 2.57463C31.7961 1.26162 30.702 -0.132245 29.2183 0.0100529C12.6343 1.6002 0.471415 16.856 0.00338258 32.4947C-0.0507985 34.3059 0.559462 35.861 0.862646 37.6238C-0.0480579 41.1479 0.269106 45.3166 1.72191 48.737ZM22.3442 48.737C22.3241 48.7566 21.5227 48.6964 21.485 48.737C21.2922 48.9428 21.6974 49.4051 21.485 49.5918C21.4648 49.6095 21.4982 49.5802 21.485 49.5918C21.3801 49.6637 20.7352 49.53 20.6257 49.5918C20.5024 49.6615 20.6208 50.4362 20.6257 50.4467C19.4594 50.8852 18.2481 50.7274 17.1887 50.4467C16.1434 50.1698 15.4582 49.5037 14.6109 48.737C12.6494 46.9617 11.1147 44.3025 11.1738 41.8981C11.2121 40.345 12.4432 38.5329 13.7516 37.6238C13.6922 37.996 13.7605 38.9509 13.7516 39.3335C13.6966 41.652 14.8403 43.5185 16.3294 45.3176C17.6836 46.9538 19.3039 48.4314 21.485 48.737C21.6795 48.7643 22.1503 48.7345 22.3442 48.737C22.3462 48.732 22.3411 48.7439 22.3442 48.737ZM13.7516 30.785C19.5323 28.6347 25.4823 30.0009 28.3591 35.0592C28.0766 34.8183 27.8047 34.4254 27.4998 34.2044C20.9462 29.4549 10.2223 30.455 6.87749 38.4787C6.76163 38.7569 6.10642 39.0492 6.01823 39.3335C5.91131 38.9572 6.10382 38.8592 6.01823 38.4787C7.32001 34.9508 9.98342 32.1864 13.7516 30.785Z" fill="#FFD16C"/>
</svg>
