<svg width="48" height="48" viewBox="0 0 48 48" fill="none" xmlns="http://www.w3.org/2000/svg">
<rect x="1" y="1" width="46" height="46" rx="3" stroke="#3E2723" stroke-width="2"/>
<path d="M24 20.0015C21.7904 20.0015 20 21.7919 20 24.0015C20 26.2111 21.7904 28.0015 24 28.0015C26.2096 28.0015 28 26.2111 28 24.0015C28 21.7919 26.2096 20.0015 24 20.0015Z" fill="black"/>
<path d="M12.771 29.7921C13.0875 29.8988 13.404 30.0069 13.728 30.0999C13.623 30.5281 13.5315 30.9501 13.446 31.3859C12.708 35.3507 13.284 38.4927 15.126 39.5715C17.025 40.6854 20.217 39.5426 23.325 36.7785C23.571 36.5575 23.817 36.329 24.063 36.0852C24.372 36.393 24.696 36.6855 25.0185 36.9705C28.0275 39.5989 31.002 40.6625 32.838 39.5852C34.737 38.4714 35.355 35.0932 34.554 30.9791C34.491 30.6652 34.4205 30.3437 34.3425 30.0146C34.5675 29.9506 34.785 29.879 35.004 29.8073C39.0615 28.4436 42 26.2357 42 23.9714C42 21.8077 39.2295 19.7079 35.4045 18.3716C35.025 18.2436 34.6455 18.1202 34.266 18.0059C34.329 17.7423 34.386 17.4772 34.4415 17.2136C35.307 12.9562 34.737 9.53694 32.817 8.40785C30.9675 7.32903 27.951 8.45051 24.9 11.1506C24.597 11.4142 24.303 11.693 24.021 11.9719C23.8305 11.786 23.634 11.6001 23.4375 11.4218C20.238 8.53584 17.0325 7.32142 15.1125 8.45813C13.2705 9.54456 12.7215 12.7658 13.4955 16.7915C13.5735 17.1922 13.6575 17.5838 13.755 17.9846C13.305 18.1126 12.8625 18.2558 12.447 18.4067C8.6925 19.7278 6 21.8138 6 23.9714C6 26.2006 8.868 28.4344 12.771 29.7921ZM22.3335 35.6113C21.174 36.6901 19.83 37.5464 18.3675 38.1331C17.5875 38.511 16.6875 38.5475 15.885 38.226C14.7675 37.5693 14.3025 35.0475 14.9355 31.6541C15.0135 31.2549 15.0975 30.8542 15.195 30.461C16.77 30.8039 18.3585 31.04 19.9695 31.1604C20.898 32.4967 21.9165 33.7752 23.007 34.9744C22.782 35.1953 22.557 35.4102 22.332 35.6098L22.3335 35.6113ZM31.263 22.1993C30.933 21.57 30.5955 20.9422 30.243 20.3281C29.898 19.7217 29.5395 19.1213 29.1675 18.5286C30.3 18.6718 31.383 18.8638 32.3955 19.1C32.0715 20.1575 31.692 21.186 31.263 22.1993ZM31.2765 25.7557C31.7265 26.7918 32.121 27.8417 32.4645 28.9205C31.374 29.1704 30.2715 29.3639 29.16 29.4919C29.5395 28.8916 29.898 28.2775 30.2505 27.6634C30.609 27.0341 30.9465 26.3987 31.2765 25.7557ZM30.4635 23.979C29.9925 24.9649 29.4855 25.9355 28.9455 26.8924C28.4115 27.8417 27.8415 28.7636 27.2445 29.6778C26.1975 29.7571 25.107 29.7921 24.003 29.7921C22.899 29.7921 21.831 29.7571 20.7975 29.6915C20.1855 28.7849 19.6095 27.8554 19.068 26.9061C18.5265 25.9568 18.027 24.9923 17.556 24.0064H17.553C18.0165 23.0206 18.5235 22.056 19.0575 21.1067C19.5915 20.1575 20.169 19.2356 20.7735 18.329C21.828 18.2497 22.9035 18.2071 24.0015 18.2071C25.0995 18.2071 26.181 18.2497 27.2295 18.329C27.8265 19.2295 28.3965 20.1498 28.938 21.093C29.4795 22.0362 29.985 23.0008 30.4635 23.979ZM17.748 20.3418C17.403 20.9483 17.0655 21.5684 16.749 22.1978C16.3065 21.1342 15.933 20.0919 15.624 19.0847C16.6365 18.8562 17.712 18.6703 18.8295 18.527C18.459 19.1198 18.093 19.7262 17.748 20.3418ZM16.7505 25.8121C17.0745 26.4414 17.4045 27.0631 17.7555 27.6771C18.114 28.2988 18.48 28.9205 18.867 29.527C17.7705 29.4051 16.68 29.2268 15.6045 28.9906C15.9135 27.9621 16.3005 26.8985 16.7505 25.8121ZM24.057 33.8742C23.34 33.0895 22.623 32.2194 21.927 31.2823C22.602 31.3113 23.298 31.325 24.0015 31.325C24.726 31.325 25.4355 31.3113 26.139 31.2747C25.4925 32.1813 24.7965 33.0468 24.057 33.8742ZM33.2475 36.0197C33.183 36.8897 32.7615 37.7034 32.0865 38.2535C30.969 38.9102 28.5855 38.0539 26.0115 35.8109C25.716 35.5534 25.4205 35.2745 25.119 34.9896C26.1945 33.7828 27.186 32.5044 28.086 31.1619C29.6955 31.0263 31.299 30.7764 32.8815 30.4123C32.952 30.7048 33.015 30.9974 33.072 31.2838C33.417 32.8274 33.4725 34.4334 33.2475 36.0197ZM33.858 19.4779C34.224 19.5845 34.575 19.6988 34.9125 19.8131C38.1885 20.9559 40.488 22.6564 40.488 23.9562C40.488 25.3565 38.034 27.1636 34.5255 28.3415C34.329 28.4055 34.1325 28.4695 33.9285 28.5274C33.4365 26.9701 32.832 25.4494 32.136 23.9699C32.811 22.5132 33.381 21.0123 33.858 19.4779ZM25.89 12.3071C28.5075 9.99407 30.9465 9.08744 32.058 9.73655C33.246 10.4299 33.7035 13.229 32.958 16.9073C32.9085 17.1496 32.859 17.3858 32.796 17.6219C31.2345 17.2654 29.6535 17.0079 28.0635 16.8646C27.15 15.5344 26.151 14.2636 25.068 13.0705C25.3425 12.8069 25.6095 12.557 25.89 12.3071ZM24.015 14.1646C24.753 14.9782 25.449 15.8346 26.0955 16.7199C24.7035 16.6559 23.304 16.6559 21.912 16.7199C22.6005 15.7995 23.3115 14.9432 24.015 14.1646ZM15.858 9.78684C17.04 9.08744 19.662 10.087 22.425 12.5722C22.6005 12.7292 22.776 12.9014 22.959 13.072C21.8685 14.2636 20.8635 15.5344 19.9425 16.8631C18.354 17.0063 16.779 17.2562 15.2175 17.6067C15.126 17.2425 15.0495 16.8707 14.9715 16.4989C14.31 13.0416 14.7465 10.436 15.858 9.78684ZM12.9405 19.8558C13.341 19.7125 13.749 19.5845 14.157 19.4626C14.6355 21.0123 15.2115 22.5345 15.879 24.0049C15.204 25.4982 14.6205 27.0402 14.136 28.6112L14.1345 28.6127C13.839 28.5274 13.551 28.4344 13.263 28.3339C11.766 27.8554 10.0635 27.0981 8.8335 26.1062C8.124 25.6064 7.6455 24.8354 7.512 23.9699C7.512 22.6625 9.7335 20.9909 12.9405 19.8558Z" fill="black"/>
</svg>
